PathFileType	4	(X/Y/Z)	S01_0018_Gait_markers.trc
DataRate	CameraRate	NumFrames	NumMarkers	Units	OrigDataRate	OrigDataStartFrame	OrigNumFrames
250.000000	250.000000	4	54	mm	250.000000	136	363
Frame#	Time	HEAD_ANT			R_HEAD			L_HEAD			C7			R_BACK			L_BACK			STERNUM			R_ACROMION			R_HUM_PROX			R_HUM_ANT			R_HUM_POST			R_ELBOW_LAT			R_ELBOW_MED			R_FOREARM			R_WIRST_LAT			R_WRITS_MED			R_HAND			L_ACROMION			L_HUM_PROX			L_HUM_ANT			L_HUM_POST			L_ELBOW_LAT			L_ELBOW_MED			L_FOREARM			L_WRIST_LAT			L_WIRST_MED			L_HAND			R_ILIAC			SACRUM			L_ILIAC			R_GTROCH			R_THIGH__1			R_THIGH_2			R_THIGH_3			R_THIGH_4			R_SHANK_1			R_SHANK_2			R_SHANK_3			R_SHANK_4			R_HEEL			R_FOOT_LAT			R_FOOT_MED			L_GTROCH			L_THIGH_1			L_THIGH_2			L_THIGH_3			L_THIGH_4			L_SHANK_1			L_SHANK_2			L_SHANK_3			L_SHANK_4			L_HEEL			L_FOOT_LAT			L_FOOT_MED			
		X1	Y1	Z1	X2	Y2	Z2	X3	Y3	Z3	X4	Y4	Z4	X5	Y5	Z5	X6	Y6	Z6	X7	Y7	Z7	X8	Y8	Z8	X9	Y9	Z9	X10	Y10	Z10	X11	Y11	Z11	X12	Y12	Z12	X13	Y13	Z13	X14	Y14	Z14	X15	Y15	Z15	X16	Y16	Z16	X17	Y17	Z17	X18	Y18	Z18	X19	Y19	Z19	X20	Y20	Z20	X21	Y21	Z21	X22	Y22	Z22	X23	Y23	Z23	X24	Y24	Z24	X25	Y25	Z25	X26	Y26	Z26	X27	Y27	Z27	X28	Y28	Z28	X29	Y29	Z29	X30	Y30	Z30	X31	Y31	Z31	X32	Y32	Z32	X33	Y33	Z33	X34	Y34	Z34	X35	Y35	Z35	X36	Y36	Z36	X37	Y37	Z37	X38	Y38	Z38	X39	Y39	Z39	X40	Y40	Z40	X41	Y41	Z41	X42	Y42	Z42	X43	Y43	Z43	X44	Y44	Z44	X45	Y45	Z45	X46	Y46	Z46	X47	Y47	Z47	X48	Y48	Z48	X49	Y49	Z49	X50	Y50	Z50	X51	Y51	Z51	X52	Y52	Z52	X53	Y53	Z53	X54	Y54	Z54	

137	0.544	839.33203125	1737.62109375	-315.8942565917965	783.7518310546875	1688.021728515625	-234.7880096435543	777.0482788085938	1689.136352539062	-382.7113342285152	644.4149780273438	1521.317626953125	-301.1891174316403	573.396728515625	1325.708251953125	-230.0205230712888	566.5936279296875	1327.791381835938	-368.4287414550778	818.615478515625	1356.426635742188	-313.7745666503903	730.0306396484375	1468.419189453125	-135.4803619384762	704.8673095703125	1308.092407226562	-42.50366592407197	769.8984375	1224.66552734375	-49.10392761230442	650.9485473632812	1222.46240234375	-22.26754570007297	706.4576416015625	1117.32177734375	-24.37111282348608	664.9306030273438	1112.863647460938	-98.73249816894507	847.3271484375	967.7120971679688	-72.95938110351541	891.7017211914062	921.1920166015625	-129.1056823730467	843.5586547851562	874.5328979492188	-82.92910766601543	933.7086791992188	836.3580932617188	-88.34812927246075	711.934814453125	1476.572875976562	-474.6558227539059	663.435302734375	1315.118774414063	-571.0491943359372	716.4912719726562	1229.166381835938	-584.1328124999998	592.8086547851562	1244.103271484375	-587.9176025390623	642.2879638671875	1134.471313476563	-607.6761474609373	595.4697875976562	1132.429565429688	-543.912658691406	737.0874633789062	953.8841552734376	-610.5893554687498	774.8308715820312	891.0432739257814	-563.829650878906	718.4993896484375	872.6156005859376	-618.050109863281	792.020751953125	809.7011718750001	-615.5018920898435	708.6511840820312	1072.021484375	-138.3558807373045	579.5611572265625	1046.529541015625	-307.7059326171873	693.8008422851562	1070.818237304688	-482.2331542968748	648.8158569335938	929.634765625	-129.145797729492	625.4730224609375	656.1170043945312	-152.2537384033202	684.3250732421875	659.7354125976562	-147.322799682617	666.2945556640625	560.2507934570312	-185.0471649169921	604.5650024414062	579.224853515625	-175.5788116455077	536.4140014648438	354.3907470703126	-180.2257537841796	586.6171875	324.9047546386719	-198.1149749755859	565.974853515625	243.7537994384766	-219.5199890136718	505.1410827636719	260.4120483398438	-206.5508575439453	424.081787109375	66.15883636474616	-297.1908264160156	580.4286499023438	19.9539127349854	-209.1797790527344	640.6870727539062	28.89223670959479	-308.962158203125	672.6419677734375	957.1821899414064	-493.2416381835935	864.9306640625	707.5454101562501	-488.051544189453	808.7863159179688	706.4663085937501	-506.7192077636717	830.7435302734375	604.7180175781251	-479.7227478027343	889.2509765625	629.5887451171876	-466.8051452636718	878.8576049804688	349.9232177734376	-473.7891540527343	822.0601196289062	327.404754638672	-471.9929809570312	822.271240234375	240.8157501220704	-457.2595520019531	885.6140747070312	248.6146850585939	-454.6615600585937	795.307373046875	48.25583648681649	-385.6854553222656	967.5894165039062	36.20655059814464	-465.3468627929688	1005.951843261719	56.93405914306649	-374.4084167480469	
138	0.548	844.9306030273438	1736.631225585938	-316.6181030273434	789.2728881835938	1687.071655273438	-235.4745330810543	782.6085815429688	1688.04248046875	-383.4147033691402	650.027099609375	1520.52978515625	-301.5978698730465	578.8870239257812	1324.902709960938	-230.3287963867185	572.044677734375	1326.929809570312	-368.6800842285153	824.0481567382812	1355.33349609375	-313.8369140624997	735.6771240234375	1467.534057617188	-135.8176116943356	710.8839721679688	1307.338623046875	-42.73246002197236	776.221923828125	1224.154174804688	-49.4245414733884	657.2164916992188	1221.355346679688	-22.18258094787571	713.0759887695312	1116.546142578125	-24.34825325012182	671.4124145507812	1111.722900390625	-98.4046478271482	854.3912963867188	967.4924926757812	-73.27588653564432	898.3225708007812	920.970703125	-130.1293029785154	850.8458251953125	874.2930297851562	-83.31258392333964	941.1036376953125	836.4191284179688	-89.60159301757794	717.5048217773438	1475.502563476562	-475.2731933593747	668.4773559570312	1314.043334960938	-571.4331665039059	721.4617919921875	1228.099487304688	-584.5991210937498	597.826416015625	1243.225952148438	-587.9774169921873	646.905029296875	1133.448974609375	-607.9962158203123	600.3535766601562	1131.50830078125	-544.0352783203123	741.8104248046875	952.7213745117189	-610.678039550781	779.3818969726562	889.9714355468751	-564.1208496093748	722.8779296875	871.6906738281251	-618.369445800781	796.3340454101562	808.6546020507814	-615.5839843749998	713.3781127929688	1071.04833984375	-138.5182800292966	584.8890380859375	1045.574340820312	-308.1867065429685	699.1436157226562	1069.787231445312	-482.4864196777341	653.697509765625	929.241943359375	-129.4119567871092	628.6173095703125	656.2066040039062	-152.3789978027342	687.3343505859375	659.3702392578125	-147.4796295166014	669.1261596679688	559.97265625	-184.8305358886718	607.1538696289062	579.296630859375	-175.6641387939452	537.6429443359375	354.7202148437501	-180.3865356445312	587.24609375	324.8770751953126	-198.6523284912109	566.866455078125	243.9484252929688	-219.5195922851562	505.9750061035156	260.9090576171876	-206.8201599121093	424.3471984863281	67.01216125488288	-297.800537109375	580.28857421875	19.97959136962895	-209.3033447265625	640.860595703125	28.94819831848151	-308.9269714355469	677.7285766601562	956.2026977539064	-493.2839355468748	869.510009765625	706.3630981445314	-487.6846313476561	813.4000854492188	705.1350097656251	-506.3331298828123	834.9537963867188	603.5177612304689	-479.399200439453	893.8783569335938	628.4725341796876	-466.6196289062499	888.3275756835938	349.4391479492189	-473.7685546874999	832.2438354492188	325.5643310546876	-471.7989501953124	834.6987915039062	239.0157775878907	-457.0972900390624	897.7882690429688	248.3863067626954	-454.7037963867187	812.8457641601562	45.7398223876954	-386.2457275390625	985.3071899414062	37.65332031250011	-465.7674255371094	1023.224365234375	59.39387130737313	-374.9361267089844	
139	0.552	850.5384521484375	1735.6689453125	-317.151702880859	794.9708251953125	1686.245971679688	-235.9472045898434	788.295166015625	1687.0654296875	-383.9199218749996	655.5795288085938	1519.508544921875	-301.9513549804684	584.2703247070312	1324.138427734375	-230.5532226562497	577.5671997070312	1325.855102539062	-369.0524597167966	829.3621826171875	1354.1572265625	-314.565979003906	741.3446044921875	1466.550903320312	-136.4237060546872	717.1509399414062	1306.453857421875	-43.20203399658174	782.590576171875	1223.582397460938	-49.79279327392551	663.6378784179688	1220.669067382812	-22.1081295013425	719.7130126953125	1115.81787109375	-24.19504737853979	677.5608520507812	1110.787353515625	-98.23010253906226	861.2068481445312	967.15234375	-74.27416992187479	904.9688110351562	920.8271484375	-130.9681549072264	858.1270141601562	873.9564208984375	-83.9731445312498	948.435791015625	836.5232543945312	-90.756393432617	722.8445434570312	1474.401733398438	-475.5443420410153	673.436279296875	1313.006225585938	-571.7578735351559	726.2955932617188	1226.854125976563	-584.9025268554685	602.7025146484375	1242.461547851563	-588.2880249023435	649.1272583007812	1133.496826171875	-609.1290893554685	605.2344970703125	1130.578857421875	-544.324523925781	746.44287109375	951.4361572265626	-610.333312988281	784.0504150390625	888.7912597656251	-564.334533691406	727.2930908203125	870.4406738281251	-618.6945800781248	800.9238891601562	807.3131713867189	-615.8295898437498	718.3490600585938	1070.146484375	-138.8409881591795	590.1587524414062	1044.714477539062	-308.4963378906248	704.48291015625	1068.74365234375	-482.8182067871091	658.7526245117188	928.9437866210938	-129.6384124755857	631.7821044921875	656.3202514648438	-152.4150390624999	690.5095825195312	659.087158203125	-147.6870880126952	671.527587890625	559.6154174804688	-185.1092834472655	610.053955078125	579.5523071289062	-175.6742706298827	538.9140014648438	354.9893493652344	-180.6419372558593	589.02197265625	325.3677978515626	-198.0183105468749	567.7692260742188	244.1991424560547	-219.6046905517578	506.9949035644531	261.6707153320313	-206.9227752685546	424.6181030273438	67.77789306640632	-298.4077758789062	580.1123657226562	20.05197143554692	-209.4907684326172	641.0104370117188	28.93013000488288	-308.8721313476562	682.8173217773438	955.0486450195314	-493.2857360839841	874.0748901367188	704.0816040039064	-487.3507385253905	817.6752319335938	702.8218383789064	-505.6883544921873	839.8112182617188	602.0593261718751	-478.9819335937499	898.4431762695312	627.1041870117189	-466.273956298828	897.7508544921875	348.993865966797	-473.9094238281249	842.453369140625	323.7924804687501	-471.7640991210937	847.1859130859375	237.2293395996095	-456.8941955566406	909.9322509765625	248.3721923828126	-455.0590515136718	830.147705078125	43.43180847167977	-386.4862365722656	1002.950805664062	39.38692474365245	-466.1670227050781	1040.243041992188	61.94969177246102	-375.4151000976562	
140	0.556	856.115478515625	1734.712768554688	-317.6698913574215	800.5831298828125	1685.148071289062	-236.4934844970699	793.907470703125	1685.979736328125	-384.5439758300777	661.0625	1518.43310546875	-302.5531005859372	589.7711791992188	1323.273071289062	-230.9566955566403	582.9910278320312	1324.9609375	-369.4321289062497	834.734130859375	1352.937744140625	-315.0164794921872	747.0526733398438	1465.58984375	-136.9259948730466	723.168212890625	1305.688598632812	-43.36770248413057	788.88134765625	1222.737548828125	-50.24356079101535	669.9384155273438	1219.637817382812	-22.14580726623508	726.2799072265625	1115.009033203125	-24.32709693908667	683.9817504882812	1109.729125976562	-98.01514434814429	868.1676025390625	966.8019409179688	-75.02887725830057	911.5714721679688	920.6011352539062	-131.8673553466795	865.2852783203125	873.454833984375	-84.50425720214824	955.5474243164062	836.370849609375	-91.73390960693341	728.4193725585938	1473.381958007812	-476.080657958984	678.569091796875	1311.964965820313	-571.9968872070309	731.230224609375	1225.800537109375	-585.4535522460935	607.8049926757812	1241.354248046875	-588.4227905273435	656.2601318359375	1131.5517578125	-608.4589843749998	610.2293701171875	1129.5927734375	-544.2692871093748	751.0634765625	950.2882690429689	-610.7464599609373	788.5159301757812	887.6299438476564	-564.6370849609373	731.9041748046875	869.3380737304689	-618.9533691406248	805.2859497070312	806.1658325195314	-616.2347412109373	724.3131713867188	1069.36328125	-139.0304412841795	595.552978515625	1043.778076171875	-308.6593017578123	709.685791015625	1067.5732421875	-483.005676269531	663.7350463867188	928.5960693359375	-129.8363342285154	635.0371704101562	656.2533569335938	-152.6840362548827	693.7264404296875	658.907470703125	-147.784957885742	674.4266967773438	559.478515625	-184.8240814208983	612.88232421875	579.7266845703125	-175.8345336914061	540.288818359375	355.3780822753907	-180.859634399414	589.75	325.2417907714844	-198.7028808593749	568.7703247070312	244.5249328613282	-219.5881195068359	507.9696350097656	262.2164611816407	-207.2438812255859	424.9115295410156	68.68672943115241	-298.8615112304688	579.9275512695312	20.12757492065434	-209.6779937744141	641.1484375	28.86192512512214	-308.7662353515625	688.0289306640625	953.9255371093751	-493.6242675781248	878.7325439453125	703.5122680664064	-488.1940612792967	822.289306640625	702.1802978515626	-506.4244384765623	844.1493530273438	600.6764526367189	-478.4406433105468	902.9559326171875	625.7977905273439	-466.3190002441405	907.4727783203125	348.6803588867189	-473.5509033203124	852.42138671875	322.0210876464845	-471.4537963867187	859.216796875	235.7282867431642	-456.8659667968749	921.873046875	248.3133697509767	-455.3627319335937	847.2843627929688	41.49666976928719	-386.8228149414062	1020.102905273438	40.99136352539073	-466.7292175292969	1057.271850585938	64.83686065673837	-375.9983215332031	
